<?xml version="1.0" encoding="UTF-8"?>
<!DOCTYPE svg PUBLIC "-//W3C//DTD SVG 1.1//EN" "http://www.w3.org/Graphics/SVG/1.1/DTD/svg11.dtd">
<svg xmlns="http://www.w3.org/2000/svg" version="1.1" width="130px" height="130px" style="shape-rendering:geometricPrecision; text-rendering:geometricPrecision; image-rendering:optimizeQuality; fill-rule:evenodd; clip-rule:evenodd" xmlns:xlink="http://www.w3.org/1999/xlink">
<g><path style="opacity:1" fill="#020101" d="M -0.5,-0.5 C 17.5,-0.5 35.5,-0.5 53.5,-0.5C 24.5,6.5 6.5,24.5 -0.5,53.5C -0.5,35.5 -0.5,17.5 -0.5,-0.5 Z"/></g>
<g><path style="opacity:1" fill="#fbe9ef" d="M 53.5,-0.5 C 59.5,-0.5 65.5,-0.5 71.5,-0.5C 102.641,4.74935 121.975,22.7493 129.5,53.5C 129.5,60.1667 129.5,66.8333 129.5,73.5C 122.726,105.213 103.392,123.88 71.5,129.5C 65.5,129.5 59.5,129.5 53.5,129.5C 23.8098,122.129 5.80983,103.462 -0.5,73.5C -0.5,66.8333 -0.5,60.1667 -0.5,53.5C 6.5,24.5 24.5,6.5 53.5,-0.5 Z"/></g>
<g><path style="opacity:1" fill="#030303" d="M 71.5,-0.5 C 90.8333,-0.5 110.167,-0.5 129.5,-0.5C 129.5,17.5 129.5,35.5 129.5,53.5C 121.975,22.7493 102.641,4.74935 71.5,-0.5 Z"/></g>
<g><path style="opacity:1" fill="#f95896" d="M 104.5,32.5 C 106.416,34.6687 107.75,37.3353 108.5,40.5C 110.667,41.9479 113,43.1146 115.5,44C 112.804,44.7648 110.304,45.9315 108,47.5C 106.333,56.8333 104.667,56.8333 103,47.5C 100.602,46.1437 98.1024,44.9771 95.5,44C 101.963,42.9161 104.963,39.0827 104.5,32.5 Z"/></g>
<g><path style="opacity:1" fill="#f85093" d="M 38.5,40.5 C 44.5,40.5 50.5,40.5 56.5,40.5C 56.5,41.5 56.5,42.5 56.5,43.5C 50.5,43.5 44.5,43.5 38.5,43.5C 38.5,42.5 38.5,41.5 38.5,40.5 Z"/></g>
<g><path style="opacity:1" fill="#f84f92" d="M 72.5,40.5 C 78.5368,40.1707 84.5368,40.5041 90.5,41.5C 90.2907,42.086 89.9574,42.586 89.5,43C 83.8431,43.4994 78.1764,43.6661 72.5,43.5C 72.5,42.5 72.5,41.5 72.5,40.5 Z"/></g>
<g><path style="opacity:1" fill="#f95b98" d="M 44.5,48.5 C 46.7224,48.178 48.5557,48.8446 50,50.5C 50.6667,56.1667 50.6667,61.8333 50,67.5C 47.6667,70.1667 45.3333,70.1667 43,67.5C 42.3333,61.8333 42.3333,56.1667 43,50.5C 43.7172,49.9558 44.2172,49.2891 44.5,48.5 Z"/></g>
<g><path style="opacity:1" fill="#f85193" d="M 80.5,49.5 C 82.1439,49.2865 83.6439,49.6198 85,50.5C 85.6667,56.8333 85.6667,63.1667 85,69.5C 83,70.8333 81,70.8333 79,69.5C 78.3333,63.5 78.3333,57.5 79,51.5C 79.7172,50.9558 80.2172,50.2891 80.5,49.5 Z"/></g>
<g><path style="opacity:1" fill="#f95093" d="M 25.5,58.5 C 37.6348,58.4564 40.6348,63.6231 34.5,74C 24.4261,77.5533 19.9261,74.0533 21,63.5C 22.025,61.313 23.525,59.6464 25.5,58.5 Z"/></g>
<g><path style="opacity:1" fill="#f95294" d="M 95.5,58.5 C 104.658,56.8346 108.825,60.5013 108,69.5C 105.598,75.092 101.431,76.9253 95.5,75C 88.9022,69.4635 88.9022,63.9635 95.5,58.5 Z"/></g>
<g><path style="opacity:1" fill="#050404" d="M 129.5,73.5 C 129.5,92.1667 129.5,110.833 129.5,129.5C 110.167,129.5 90.8333,129.5 71.5,129.5C 103.392,123.88 122.726,105.213 129.5,73.5 Z"/></g>
<g><path style="opacity:1" fill="#030303" d="M -0.5,73.5 C 5.80983,103.462 23.8098,122.129 53.5,129.5C 35.5,129.5 17.5,129.5 -0.5,129.5C -0.5,110.833 -0.5,92.1667 -0.5,73.5 Z"/></g>
<g><path style="opacity:1" fill="#f95595" d="M 45.5,82.5 C 49.1055,82.7986 52.4388,83.9653 55.5,86C 64.3656,87.3437 72.8656,86.177 81,82.5C 84.3573,84.4763 84.1906,86.3097 80.5,88C 68.918,92.94 57.5847,92.6067 46.5,87C 45.6198,85.6439 45.2865,84.1439 45.5,82.5 Z"/></g>
</svg>
