<?xml version="1.0"?>
<svg version="1.1" xmlns="http://www.w3.org/2000/svg" width="220" height="57" style="border: dashed 2px #aaa"><path fill="#01060a" d="M16.1689453125,29.69140625q0-1.224609375,0.10205078125-2.68115234375t0.36181640625-2.92236328125t0.779296875-2.82958984375t1.3359375-2.4306640625t1.99462890625-1.69775390625t2.81103515625-0.630859375q1.298828125,0,2.3935546875,0.5009765625t1.9111328125,1.3544921875t1.27099609375,1.99462890625t0.45458984375,2.38427734375q0,0.333984375-0.45458984375,0.41748046875t-0.64013671875,0.08349609375q-0.333984375,0-0.64013671875-0.0556640625t-0.45458984375-0.4453125q-0.259765625-0.7236328125-0.54736328125-1.521484375t-0.705078125-1.45654296875t-1.02978515625-1.08544921875q-0.556640625-0.37109375-1.41015625-0.37109375l-0.1484375,0q-1.55859375,0.037109375-2.3193359375,1.11328125t-1.04833984375,2.6162109375t-0.28759765625,3.265625l0,3.0615234375q0,0.7607421875,0.0556640625,2.2080078125t0.26904296875,3.154296875t0.556640625,3.47900390625t0.927734375,3.228515625t1.40087890625,2.375t1.966796875,0.91845703125q1.0205078125,0,1.78125-0.705078125t1.30810546875-1.80908203125t0.927734375-2.4677734375t0.630859375-2.73681640625t0.38037109375-2.55126953125t0.2041015625-1.93896484375q-0.2041015625-0.0185546875-0.3896484375-0.0185546875q-0.8720703125,0-1.70703125,0.2783203125q-1.0576171875,0.3154296875-2.115234375,0.3154296875q-0.1484375,0-0.39892578125-0.0185546875t-0.47314453125-0.0927734375t-0.39892578125-0.21337890625t-0.17626953125-0.36181640625q0-0.4267578125,0.93701171875-0.7236328125t2.1337890625-0.51025390625t2.31005859375-0.30615234375t1.4658203125-0.0927734375q0.185546875,0,0.52880859375,0.037109375t0.6865234375,0.1298828125t0.58447265625,0.26904296875t0.2412109375,0.43603515625q0,0.22265625-0.1669921875,0.39892578125t-0.41748046875,0.26904296875t-0.51025390625,0.1298828125t-0.408203125,0.037109375q0.0185546875,0.4267578125,0.0185546875,0.8720703125q0,1.001953125-0.0556640625,2.1337890625q-0.0927734375,1.6328125-0.37109375,3.265625t-0.853515625,3.1728515625t-1.4658203125,2.71826171875t-2.19873046875,1.90185546875t-3.10791015625,0.7236328125q-1.966796875,0-3.3212890625-0.8349609375t-2.2080078125-2.2265625t-1.32666015625-3.154296875t-0.67724609375-3.60888671875t-0.25048828125-3.59033203125t-0.04638671875-3.154296875z M37.222392578125,45.0732421875q0-0.111328125,0.07421875-0.78857421875t0.19482421875-1.6513671875t0.26904296875-2.0966796875t0.259765625-2.12451171875t0.19482421875-1.7626953125t0.08349609375-1.0205078125q-0.1484375-0.07421875-0.36181640625-0.21337890625t-0.21337890625-0.32470703125q0-0.259765625,0.25048828125-0.41748046875t0.43603515625-0.23193359375q0.07421875-0.9462890625,0.185546875-2.634765625t0.34326171875-3.64599609375t0.6494140625-3.970703125t1.10400390625-3.6552734375t1.6513671875-2.68115234375t2.375-1.0390625t2.337890625,0.890625t1.51220703125,2.3193359375t0.890625,3.1728515625t0.4638671875,3.4697265625t0.19482421875,3.228515625t0.07421875,2.412109375q0.037109375,0.5751953125,0.2783203125,0.77001953125t0.52880859375,0.26904296875t0.51953125,0.1669921875t0.23193359375,0.4638671875q0,0.4267578125-0.51953125,0.59375t-0.81640625,0.2041015625q0.185546875,2.3193359375,0.51025390625,4.564453125t0.86279296875,4.52734375q0.07421875,0.4267578125,0.2041015625,0.86279296875t0.1298828125,0.84423828125q0,0.296875-0.2041015625,0.49169921875t-0.52880859375,0.30615234375t-0.6494140625,0.1484375t-0.54736328125,0.037109375q-0.8349609375,0-1.41015625-0.3154296875t-0.7607421875-1.2060546875q-0.5009765625-2.3935546875-0.9833984375-5.0283203125q-0.408203125-2.2822265625-0.408203125-4.4345703125q0-0.333984375,0.0185546875-0.66796875q-1.55859375,0-3.1357421875,0.07421875t-3.0244140625,0.556640625q-0.037109375,0.5009765625-0.185546875,1.892578125t-0.333984375,2.9873046875t-0.38037109375,3.05224609375t-0.23193359375,2.06884765625q-0.037109375,0.259765625-0.38037109375,0.49169921875t-0.7421875,0.25048828125t-0.705078125-0.25048828125t-0.30615234375-0.95556640625z M40.692119140625,33.8291015625q1.447265625-0.333984375,2.90380859375-0.3896484375t2.94091796875-0.1298828125q-0.07421875-0.4638671875-0.037109375-0.95556640625t0.037109375-0.99267578125q0-1.0947265625-0.0556640625-2.5419921875t-0.1669921875-2.931640625t-0.28759765625-2.92236328125t-0.39892578125-2.560546875t-0.47314453125-1.79052734375t-0.54736328125-0.66796875q-0.5751953125,0.037109375-1.08544921875,0.99267578125t-0.927734375,2.4306640625t-0.7607421875,3.302734375t-0.5751953125,3.57177734375t-0.38037109375,3.2470703125t-0.185546875,2.337890625z M55.95650390625,42.494140625q-0.0185546875-0.556640625-0.0185546875-1.11328125q0-1.744140625,0.185546875-3.5068359375q0.22265625-2.337890625,0.296875-4.6015625q0.07421875-2.6533203125,0.22265625-5.5107421875q0.0927734375-1.55859375,0.0927734375-3.080078125q0-1.2431640625-0.0556640625-2.4677734375q0.185546875-0.4267578125,0.49169921875-0.5751953125t0.77001953125-0.1484375q0.22265625,0,0.47314453125,0.037109375t0.43603515625,0.185546875q0.259765625,0.037109375,0.64013671875,0.07421875t0.58447265625,0.22265625q0.07421875,0.111328125,0.38037109375,0.7607421875t0.7236328125,1.5771484375t0.8720703125,2.01318359375t0.8720703125,2.0595703125t0.7236328125,1.71630859375t0.38037109375,0.927734375q1.744140625-3.154296875,3.4140625-6.48486328125t3.6552734375-6.28076171875q0.185546875-0.259765625,0.64013671875-0.38037109375t0.75146484375-0.12060546875q0.7978515625,0,1.15966796875,0.38037109375t0.47314453125,0.97412109375q0.07421875,0.37109375,0.0927734375,0.7978515625q0.0185546875,0.22265625-0.0185546875,0.4638671875q-0.07421875,0.6865234375-0.07421875,1.298828125q0,4.3232421875-0.296875,8.58154296875t-0.5380859375,8.60009765625q-0.037109375,0.890625-0.037109375,1.85546875t0.037109375,2.00390625q0.0185546875,0.37109375,0.0185546875,0.7236328125q0,1.6328125-0.2783203125,3.04296875q-0.259765625,0.4267578125-0.853515625,0.5380859375t-1.001953125,0.111328125q-0.8720703125,0-1.669921875-0.408203125l-0.2041015625-0.2412109375l-0.07421875-0.296875t-0.037109375-0.296875q0-2.6904296875,0.19482421875-5.41796875t0.43603515625-5.44580078125t0.51025390625-5.42724609375t0.45458984375-5.41796875q-1.0947265625,1.818359375-2.12451171875,3.70166015625t-1.93896484375,3.83154296875q-0.333984375,0.7607421875-0.64013671875,1.6328125t-0.73291015625,1.55859375q-0.22265625,0.333984375-0.75146484375,0.408203125t-0.91845703125,0.07421875q-0.37109375,0-0.77001953125-0.1298828125t-0.54736328125-0.556640625q-0.6865234375-2.0966796875-1.4658203125-4.1005859375t-1.5771484375-4.0634765625q0,1.373046875,0.0556640625,3.55322265625t0.0556640625,4.51806640625t-0.07421875,4.4716796875t-0.3525390625,3.376953125q-0.07421875,0.4638671875-0.60302734375,0.5751953125t-0.91845703125,0.111328125q-0.296875,0-0.56591796875-0.037109375t-0.52880859375-0.1484375z M77.993349609375,43.49609375q0.037109375-0.779296875,0.037109375-1.521484375q0-2.6904296875,0.19482421875-5.3623046875t0.26904296875-5.3623046875q0.111328125-3.080078125,0.2041015625-6.1044921875t0.37109375-6.0859375q0.07421875-0.7607421875,0.43603515625-0.99267578125t1.08544921875-0.23193359375q0.333984375,0,0.890625,0.1298828125t0.556640625,0.630859375q0.259765625,0.037109375,0.51953125,0.037109375q0.3896484375,0,0.7978515625-0.07421875q0.66796875-0.111328125,1.36376953125-0.25048828125t1.38232421875-0.26904296875t1.3173828125-0.1298828125q0.1484375,0,0.41748046875,0.0185546875t0.5380859375,0.111328125t0.45458984375,0.23193359375t0.185546875,0.36181640625t-0.43603515625,0.39892578125t-1.14111328125,0.30615234375t-1.521484375,0.22265625t-1.595703125,0.15771484375t-1.38232421875,0.10205078125t-0.86279296875,0.037109375l-0.037109375,6.9765625l0.037109375,3.4697265625q0.5751953125,0,1.7255859375-0.037109375q0.4638671875-0.0185546875,0.927734375-0.0185546875q0.705078125,0,1.447265625,0.037109375q1.224609375,0.0556640625,2.2080078125,0.22265625t1.2431640625,0.59375q0,0.259765625-0.26904296875,0.41748046875t-0.60302734375,0.23193359375t-0.67724609375,0.0927734375t-0.49169921875,0.0185546875q-1.373046875,0-2.7646484375-0.0556640625t-2.74609375-0.22265625q0,2.2822265625-0.12060546875,4.52734375t-0.12060546875,4.52734375q0,0.9833984375,0.0185546875,1.93896484375t0.22265625,1.90185546875q0.5009765625-0.037109375,1.08544921875-0.0927734375t1.1875-0.13916015625t1.15966796875-0.13916015625t0.96484375-0.0556640625q0.22265625,0,0.60302734375,0.0556640625t0.779296875,0.185546875t0.6865234375,0.32470703125t0.28759765625,0.45458984375q0,0.296875-0.54736328125,0.52880859375t-1.40087890625,0.37109375t-1.86474609375,0.19482421875t-1.95751953125,0.07421875t-1.70703125,0.0185546875l-1.076171875,0q-1.0205078125,0-1.49365234375-0.38037109375t-0.65869140625-0.99267578125q-0.1484375-0.5009765625-0.1298828125-1.1318359375l0-0.259765625z M100.69204101562,29.69140625q0-1.224609375,0.10205078125-2.68115234375t0.36181640625-2.92236328125t0.779296875-2.82958984375t1.3359375-2.4306640625t1.99462890625-1.69775390625t2.81103515625-0.630859375q1.298828125,0,2.3935546875,0.5009765625t1.9111328125,1.3544921875t1.27099609375,1.99462890625t0.45458984375,2.38427734375q0,0.333984375-0.45458984375,0.41748046875t-0.64013671875,0.08349609375q-0.333984375,0-0.64013671875-0.0556640625t-0.45458984375-0.4453125q-0.259765625-0.7236328125-0.54736328125-1.521484375t-0.705078125-1.45654296875t-1.02978515625-1.08544921875q-0.556640625-0.37109375-1.41015625-0.37109375l-0.1484375,0q-1.55859375,0.037109375-2.3193359375,1.11328125t-1.04833984375,2.6162109375t-0.28759765625,3.265625l0,3.0615234375q0,0.7607421875,0.0556640625,2.2080078125t0.26904296875,3.154296875t0.556640625,3.47900390625t0.927734375,3.228515625t1.40087890625,2.375t1.966796875,0.91845703125q1.0205078125,0,1.78125-0.705078125t1.30810546875-1.80908203125t0.927734375-2.4677734375t0.630859375-2.73681640625t0.38037109375-2.55126953125t0.2041015625-1.93896484375q-0.2041015625-0.0185546875-0.3896484375-0.0185546875q-0.8720703125,0-1.70703125,0.2783203125q-1.0576171875,0.3154296875-2.115234375,0.3154296875q-0.1484375,0-0.39892578125-0.0185546875t-0.47314453125-0.0927734375t-0.39892578125-0.21337890625t-0.17626953125-0.36181640625q0-0.4267578125,0.93701171875-0.7236328125t2.1337890625-0.51025390625t2.31005859375-0.30615234375t1.4658203125-0.0927734375q0.185546875,0,0.52880859375,0.037109375t0.6865234375,0.1298828125t0.58447265625,0.26904296875t0.2412109375,0.43603515625q0,0.22265625-0.1669921875,0.39892578125t-0.41748046875,0.26904296875t-0.51025390625,0.1298828125t-0.408203125,0.037109375q0.0185546875,0.4267578125,0.0185546875,0.8720703125q0,1.001953125-0.0556640625,2.1337890625q-0.0927734375,1.6328125-0.37109375,3.265625t-0.853515625,3.1728515625t-1.4658203125,2.71826171875t-2.19873046875,1.90185546875t-3.10791015625,0.7236328125q-1.966796875,0-3.3212890625-0.8349609375t-2.2080078125-2.2265625t-1.32666015625-3.154296875t-0.67724609375-3.60888671875t-0.25048828125-3.59033203125t-0.04638671875-3.154296875z M121.85681640625,26.6484375q0-1.298828125,0.7978515625-2.4677734375t1.97607421875-2.03173828125t2.56982421875-1.373046875t2.560546875-0.51025390625q1.373046875,0,2.43994140625,0.49169921875t1.80908203125,1.32666015625t1.14111328125,1.99462890625t0.39892578125,2.45849609375q0,2.3564453125-0.89990234375,4.6015625t-2.115234375,4.38818359375t-2.5048828125,4.267578125t-2.12451171875,4.25830078125l1.298828125,0.037109375q0.5751953125,0,1.15966796875-0.037109375t1.12255859375-0.22265625q0.6494140625-0.6123046875,1.70703125-0.6123046875q0.4267578125,0,1.02978515625,0.111328125t0.71435546875,0.6494140625q-0.037109375,0-0.037109375,0.1484375q0,0.7236328125-0.8720703125,1.06689453125t-2.03173828125,0.47314453125t-2.30078125,0.1298828125l-1.64208984375,0l-0.96484375,0t-1.3544921875-0.0927734375t-1.21533203125-0.2783203125t-0.64013671875-0.6123046875q0.7978515625-2.2822265625,2.2080078125-4.6015625t2.81103515625-4.62939453125t2.4306640625-4.64794921875t1.02978515625-4.7314453125q0-0.4638671875-0.15771484375-1.2431640625t-0.5380859375-1.521484375t-1.0205078125-1.25244140625t-1.64208984375-0.47314453125q-0.9091796875,0.07421875-1.6884765625,0.60302734375t-1.40087890625,1.28955078125t-1.0576171875,1.66064453125t-0.64013671875,1.69775390625q0,0.296875,0.12060546875,0.60302734375t0.12060546875,0.60302734375t-0.39892578125,0.38037109375t-0.60302734375,0.08349609375q-0.7607421875,0-1.17822265625-0.630859375t-0.41748046875-1.3544921875z M131.28259765625,43.94140625q0.1484375,0,0.2041015625-0.037109375q-0.1298828125,0-0.2041015625,0.037109375z M138.58702148437,39.48828125q0-1.373046875,0.4267578125-2.75537109375t1.17822265625-2.6162109375t1.818359375-2.21728515625t2.32861328125-1.55859375q-1.0947265625-0.4638671875-1.744140625-1.41015625t-0.6494140625-2.1708984375q0-1.595703125,0.67724609375-2.88525390625t1.7998046875-2.16162109375t2.55126953125-1.34521484375t2.9130859375-0.47314453125q2.3935546875,0,3.53466796875,1.25244140625t1.14111328125,3.60888671875q0,1.0205078125-0.30615234375,1.99462890625t-0.88134765625,1.77197265625t-1.3916015625,1.38232421875t-1.8369140625,0.80712890625q1.26171875,0.5009765625,2.375,1.298828125t1.95751953125,1.84619140625t1.3359375,2.3193359375t0.49169921875,2.68115234375q0,1.818359375-0.7421875,3.2470703125t-1.97607421875,2.3935546875t-2.82958984375,1.47509765625t-3.265625,0.51025390625q-1.595703125,0-3.1728515625-0.41748046875t-2.857421875-1.27099609375t-2.078125-2.18017578125t-0.7978515625-3.12646484375z M141.94541992187,39.525390625q0,1.0205078125,0.41748046875,2.01318359375t1.14111328125,1.75341796875t1.6884765625,1.21533203125t2.0224609375,0.45458984375q1.26171875,0,2.34716796875-0.49169921875t1.86474609375-1.32666015625t1.23388671875-1.95751953125t0.45458984375-2.36572265625q0-1.1318359375-0.36181640625-2.2080078125t-1.01123046875-1.9853515625t-1.5400390625-1.6328125t-1.9111328125-1.1318359375q-0.4638671875-0.185546875-0.93701171875-0.23193359375t-0.93701171875-0.19482421875q-1.0205078125,0.5009765625-1.8369140625,1.41015625t-1.40087890625,2.03173828125t-0.9091796875,2.337890625t-0.32470703125,2.31005859375z M144.89561523437,26.685546875q0,0.5380859375,0.19482421875,1.06689453125t0.5380859375,0.9462890625t0.81640625,0.6865234375t1.04833984375,0.26904296875q1.0576171875,0,1.85546875-0.41748046875t1.28955078125-1.10400390625t0.7421875-1.595703125t0.25048828125-1.9296875q0-0.37109375-0.0556640625-0.8720703125t-0.21337890625-0.99267578125t-0.39892578125-0.890625t-0.630859375-0.64013671875q0.037109375,0.37109375-0.34326171875,0.49169921875t-0.64013671875,0.12060546875q-0.185546875,0-0.62158203125-0.10205078125t-0.36181640625-0.39892578125q-0.7236328125,0.259765625-1.3544921875,0.853515625t-1.10400390625,1.3359375t-0.7421875,1.5771484375t-0.26904296875,1.595703125z"/><path fill="#" d=""/></svg>
